<?xml version="1.0" encoding="utf-8"?>
<!-- Generator: Adobe Illustrator 21.0.2, SVG Export Plug-In . SVG Version: 6.00 Build 0)  -->
<svg version="1.1" id="HSBC_MASTERBRAND_UK_WW_RGB" xmlns="http://www.w3.org/2000/svg" xmlns:xlink="http://www.w3.org/1999/xlink"
	 x="0px" y="0px" viewBox="0 0 392.1 85" style="enable-background:new 0 0 392.1 85;" xml:space="preserve">
<style type="text/css">
	.st0{fill:#FFFFFF;}
	.st1{fill:#DB0011;}
</style>
<title>HSBC_MASTERBRAND_UK_WW_RGB</title>
<polygon class="st0" points="128.9,0 43.9,0 1.4,42.5 43.9,85 128.9,85 171.5,42.5 "/>
<polygon class="st1" points="171.5,42.5 128.9,0 128.9,85 "/>
<polygon class="st1" points="86.4,42.5 128.9,0 43.9,0 "/>
<polygon class="st1" points="1.4,42.5 43.9,85 43.9,0 "/>
<polygon class="st1" points="86.4,42.5 43.9,85 128.9,85 "/>
<path d="M208.8,45.1h-15.4v15.2h-7.7V24.7h7.7v14.6h15.4V24.7h7.7v35.6h-7.7L208.8,45.1z"/>
<path d="M235,61c-7.7,0-14-3.1-14.1-11.6h7.7c0.1,3.8,2.3,6.1,6.5,6.1c3.1,0,6.7-1.6,6.7-5.1c0-2.8-2.4-3.6-6.4-4.8l-2.6-0.7
	c-5.6-1.6-11.2-3.8-11.2-10.2c0-7.9,7.4-10.6,14.1-10.6c6.9,0,12.9,2.4,13,10.3h-7.7c-0.3-3.2-2.2-5.1-5.8-5.1
	c-2.9,0-5.7,1.5-5.7,4.7c0,2.6,2.4,3.4,7.4,5l3,0.9c6.1,1.9,10,4,10,10C249.9,57.9,242,61,235,61z"/>
<path d="M254.2,24.7h12.4c2.3-0.1,4.7,0,7,0.4c4.3,1,7.6,3.8,7.6,8.6c0,4.6-2.9,6.9-7.1,8c4.8,0.9,8.4,3.3,8.4,8.6
	c0,8.1-8,9.9-14.2,9.9h-14L254.2,24.7z M266.6,39.5c3.4,0,6.9-0.7,6.9-4.8c0-3.7-3.2-4.7-6.4-4.7h-5.4v9.5H266.6z M267.3,55
	c3.6,0,7.1-0.8,7.1-5.2s-3-5.2-6.7-5.2h-6.1V55H267.3z"/>
<path d="M302.6,61c-11.5,0-16.6-7.3-16.6-18.2s5.7-18.8,17-18.8c7.1,0,14,3.2,14.2,11.2h-8c-0.4-3.6-2.8-5.4-6.2-5.4
	c-7,0-9.1,7.5-9.1,13.2c0,5.7,2.1,12.3,8.8,12.3c3.5,0,6.1-1.9,6.6-5.5h8C316.5,58,310,61,302.6,61z"/>
<path d="M345.2,60.9c-8.8,0-13.6-4.9-13.6-13.6V24.7h3.4v21.4c0,2.8,0,5.6,1.6,8c1.9,2.9,5.4,4.1,8.7,4.1c3.9,0,7.7-1.7,9.4-5.4
	c0.8-2.1,1.1-4.4,0.9-6.7V24.7h3.4v22.5C358.8,55.7,353.7,60.9,345.2,60.9z"/>
<path d="M365.8,24.7h3.2v35.6h-3.2V24.7z M369.2,41l15.9-16.3h4.3l-16.3,16.1l18,19.6h-4.4L369.2,41z"/>
</svg>
