<svg xmlns="http://www.w3.org/2000/svg" width="27.905" height="49.043" viewBox="11.49 0.466 27.905 49.043"><path fill="#FFE600" d="M25.468.466c-7.872 0-13.978 6.398-13.978 13.88 0 6.627 4.326 10.197 4.326 10.197.43.377.32.573.016.882 0 0-4.342 3.948-4.342 10.058 0 8.373 6.698 14.026 13.978 14.026 8.14 0 13.928-6.62 13.928-13.93 0-6.29-4.168-10.006-4.168-10.006-.588-.565-.586-.66 0-1.176 0 0 4.168-3.505 4.168-10.055 0-7.4-5.947-13.878-13.928-13.88zm-3.11 7.2c.396 0 .746.205.95.515a1.135 1.135 0 0 1 1.98.147 1.136 1.136 0 0 1 2.064 0 1.134 1.134 0 0 1 2.166.475 1.137 1.137 0 0 1-2.166.48 1.136 1.136 0 0 1-2.062-.002 1.137 1.137 0 0 1-1.983.145A1.13 1.13 0 0 1 23 9.74a1.135 1.135 0 0 1 .008 1.865 1.133 1.133 0 0 1 0 1.865c.09.064.17.14.238.226a1.134 1.134 0 0 1 1.867.13 1.134 1.134 0 0 1 1.95-.012 1.137 1.137 0 1 1 0 1.18 1.136 1.136 0 0 1-1.952-.012 1.135 1.135 0 0 1-1.866.13c-.07.087-.152.164-.244.227a1.132 1.132 0 0 1 0 1.87 1.135 1.135 0 0 1 0 1.87c.12.08.223.186.304.31a1.133 1.133 0 0 1 1.983.14 1.136 1.136 0 0 1 2.063 0 1.137 1.137 0 1 1 0 .955 1.135 1.135 0 0 1-2.063-.002 1.136 1.136 0 0 1-1.98.148 1.136 1.136 0 1 1-1.598-1.552 1.136 1.136 0 0 1 0-1.87 1.137 1.137 0 0 1 0-1.87 1.135 1.135 0 0 1-.008-1.868 1.137 1.137 0 0 1 0-1.865 1.135 1.135 0 0 1 .006-1.867 1.135 1.135 0 0 1 .644-2.07l.004-.004zm0 21.166c.396 0 .746.205.95.514a1.135 1.135 0 0 1 1.98.146c.182-.39.574-.658 1.03-.658.456 0 .85.27 1.032.656.263-.57.937-.818 1.506-.558.404.187.662.592.66 1.036a1.137 1.137 0 0 1-2.166.482 1.142 1.142 0 0 1-2.063-.004 1.138 1.138 0 0 1-1.983.146 1.13 1.13 0 0 1-.304.312 1.137 1.137 0 0 1 .003 1.867 1.133 1.133 0 0 1 0 1.866c.09.063.17.14.24.226a1.134 1.134 0 0 1 1.866.13 1.133 1.133 0 0 1 1.947-.014 1.137 1.137 0 1 1 0 1.18 1.136 1.136 0 0 1-1.95-.012 1.135 1.135 0 0 1-1.868.13 1.09 1.09 0 0 1-.245.23 1.134 1.134 0 0 1 .002 1.867 1.135 1.135 0 0 1-.002 1.87c.12.085.224.19.305.313a1.133 1.133 0 0 1 1.983.14 1.138 1.138 0 0 1 2.064 0 1.138 1.138 0 0 1 1.508-.554 1.137 1.137 0 0 1-.957 2.06 1.14 1.14 0 0 1-.55-.552 1.14 1.14 0 0 1-1.516.55 1.14 1.14 0 0 1-.55-.55 1.138 1.138 0 0 1-1.98.147c-.2.312-.554.52-.952.52a1.14 1.14 0 0 1-.645-2.075 1.136 1.136 0 0 1 0-1.87 1.134 1.134 0 0 1 0-1.87 1.135 1.135 0 0 1-.003-1.867 1.132 1.132 0 0 1 0-1.863 1.133 1.133 0 0 1 .002-1.865 1.136 1.136 0 0 1 .646-2.072h.008z"/></svg>