<?xml version="1.0" encoding="UTF-8"?><svg  xmlns="http://www.w3.org/2000/svg" viewBox="0 0 25 25"  width="16px" height="16px" class="svg-inline rating-star-full-icon"><path fill="rgb(213, 0, 50)"  d="m24.868 9.0009c-0.15942-0.45524-0.58512-0.769-1.0745-0.79193h-7.6922l-2.442-7.4153c-0.17388-0.49714-0.66242-0.82047-1.1966-0.79193-0.5229-0.0036913-0.98767 0.32672-1.1477 0.81592l-2.442 7.4153h-7.6678c-0.51506-0.0034784-0.97459 0.31734-1.1408 0.79643-0.1662 0.47909-0.0017718 1.0089 0.40819 1.3154l6.227 4.6316-2.442 7.4633c-0.17251 0.48996 0.0018857 1.0331 0.42929 1.3371s1.0069 0.29696 1.4266-0.017218l6.5201-4.7995 6.5445 4.7995c0.20384 0.15242 0.45206 0.23653 0.70817 0.23998 0.38987 0.0053763 0.75796-0.17626 0.98643-0.48677 0.22847-0.3105 0.28866-0.71093 0.1613-1.0731l-2.442-7.4633 6.1049-4.6556c0.32914-0.36293 0.39707-0.88749 0.17094-1.3199z"/></svg> 