<?xml version="1.0" encoding="UTF-8"?>
<!-- Generator: Adobe Illustrator 27.7.0, SVG Export Plug-In . SVG Version: 6.00 Build 0)  -->
<svg xmlns="http://www.w3.org/2000/svg" xmlns:xlink="http://www.w3.org/1999/xlink" version="1.1" id="Layer_1" x="0px" y="0px" viewBox="0 0 331 40" style="enable-background:new 0 0 331 40;" xml:space="preserve">
<style type="text/css">
	.st0{fill:#8E1362;}
</style>
<g>
	<g>
		<polygon points="151.6,24 151.6,37.7 144.5,37.7 144.5,3.1 151.6,3.1 151.6,17.5 165.4,17.5 165.4,3.1 172.5,3.1 172.5,37.7     165.4,37.7 165.4,24   "></polygon>
	</g>
	<g>
		<g>
			<path d="M1.4,32.2c0,0,0,0,5.2-4.5c2.7,2.1,5.6,3.3,9,3.3c3,0,4.8-1.2,4.8-3.1v-0.1c0-1.9-1.1-2.8-6.7-4.2     c-6.7-1.7-11-3.6-11-10.2v-0.1c0-6,4.8-10,11.6-10c4.8,0,9,1.5,12.3,4.2c0,0,0,0-5.3,4.5c-2.4-1.4-4.8-2.3-7.2-2.3     c-2.8,0-4.3,1.3-4.3,2.9v0.1c0,2.2,1.4,2.9,7.2,4.4c6.7,1.8,10.5,4.2,10.5,10v0.1c0,6.6-5,10.3-12.2,10.3     C10.5,37.5,5.4,35.8,1.4,32.2z"></path>
		</g>
	</g>
	<g>
		<path d="M55,20c-0.7-1.5-1.7-2.8-2.8-3.9c-1.2-1.1-2.6-1.9-4.1-2.6c-1.6-0.6-3.2-0.9-5-0.9c-1.7,0-3.3,0.3-4.8,0.9    c-1.6,0.6-2.9,1.5-4.1,2.6c-1.2,1.1-2.1,2.4-2.8,3.9c-0.7,1.5-1.1,3.2-1.1,5.1v0.1c0,1.9,0.4,3.6,1.1,5.1c0.7,1.5,1.7,2.8,2.8,3.9    c1.2,1.1,2.6,1.9,4.1,2.6c1.6,0.6,3.2,0.9,4.8,0.9c1.8,0,3.4-0.3,5-0.9c1.6-0.6,2.9-1.5,4.1-2.6c1.2-1.1,2.1-2.4,2.8-3.9    c0.7-1.5,1-3.2,1-5.1v-0.1C56,23.2,55.7,21.5,55,20z M48.3,27.6c-0.3,0.8-0.7,1.4-1.2,2c-0.5,0.6-1.1,1-1.9,1.3    c-0.7,0.3-1.5,0.5-2.3,0.5c-0.8,0-1.6-0.1-2.3-0.5c-0.7-0.3-1.3-0.8-1.9-1.3c-0.5-0.6-1-1.2-1.2-2c-0.3-0.8-0.4-1.6-0.4-2.5    c0-0.9,0.1-1.7,0.4-2.5c0.3-0.8,0.7-1.4,1.2-2c0.5-0.6,1.1-1,1.9-1.3c0.7-0.3,1.5-0.5,2.3-0.5c0.8,0,1.6,0.1,2.3,0.5    c0.7,0.3,1.3,0.8,1.9,1.3c0.5,0.6,1,1.2,1.2,2c0.3,0.8,0.4,1.6,0.4,2.5C48.8,26,48.6,26.8,48.3,27.6z"></path>
	</g>
	<g>
		<path d="M200.6,20c-0.7-1.5-1.7-2.8-2.8-3.9c-1.2-1.1-2.6-1.9-4.1-2.6c-1.6-0.6-3.2-0.9-5-0.9c-1.7,0-3.3,0.3-4.8,0.9    c-1.6,0.6-2.9,1.5-4.1,2.6c-1.2,1.1-2.1,2.4-2.8,3.9c-0.7,1.5-1.1,3.2-1.1,5.1v0.1c0,1.9,0.4,3.6,1.1,5.1c0.7,1.5,1.7,2.8,2.8,3.9    s2.6,1.9,4.1,2.6c1.6,0.6,3.2,0.9,4.8,0.9c1.8,0,3.4-0.3,5-0.9c1.6-0.6,2.9-1.5,4.1-2.6c1.2-1.1,2.1-2.4,2.8-3.9    c0.7-1.5,1-3.2,1-5.1v-0.1C201.6,23.2,201.3,21.5,200.6,20z M194,27.6c-0.3,0.8-0.7,1.4-1.2,2c-0.5,0.6-1.1,1-1.9,1.3    c-0.7,0.3-1.5,0.5-2.3,0.5c-0.8,0-1.6-0.1-2.3-0.5c-0.7-0.3-1.3-0.8-1.9-1.3c-0.5-0.6-1-1.2-1.2-2c-0.3-0.8-0.4-1.6-0.4-2.5    c0-0.9,0.1-1.7,0.4-2.5c0.3-0.8,0.7-1.4,1.2-2c0.5-0.6,1.1-1,1.9-1.3c0.7-0.3,1.5-0.5,2.3-0.5c0.8,0,1.6,0.1,2.3,0.5    c0.7,0.3,1.3,0.8,1.9,1.3c0.5,0.6,1,1.2,1.2,2c0.3,0.8,0.4,1.6,0.4,2.5C194.4,26,194.3,26.8,194,27.6z"></path>
	</g>
	<g>
		<path d="M139.7,3.1h-7.1v11.1c-0.3-0.1-0.6-0.3-1-0.4c-1.6-0.6-3.2-0.9-5-0.9c-1.7,0-3.3,0.3-4.8,0.9c-1.6,0.6-2.9,1.5-4.1,2.6    c-1.2,1.1-2.1,2.4-2.8,3.9c-0.7,1.5-1.1,3.2-1.1,5.1v0.1c0,1.9,0.4,3.6,1.1,5.1c0.7,1.5,1.7,2.8,2.8,3.9c1.2,1.1,2.6,1.9,4.1,2.6    c1.6,0.6,3.2,0.9,4.8,0.9c1.8,0,3.4-0.3,5-0.9c1.6-0.6,2.9-1.5,4.1-2.6c1.2-1.1,2.1-2.4,2.8-3.9c0.7-1.5,1-3.2,1-5.1v-0.1    c0-0.1,0-0.2,0-0.4h0V3.1L139.7,3.1z M132,27.9c-0.3,0.8-0.7,1.4-1.2,2c-0.5,0.6-1.1,1-1.9,1.3c-0.7,0.3-1.5,0.5-2.3,0.5    c-0.8,0-1.6-0.1-2.3-0.5c-0.7-0.3-1.3-0.8-1.9-1.3c-0.5-0.6-1-1.2-1.2-2c-0.3-0.8-0.4-1.6-0.4-2.5c0-0.9,0.1-1.7,0.4-2.5    c0.3-0.8,0.7-1.4,1.2-2c0.5-0.6,1.1-1,1.9-1.3c0.7-0.3,1.5-0.5,2.3-0.5c0.8,0,1.6,0.1,2.3,0.5c0.7,0.3,1.3,0.8,1.9,1.3    c0.5,0.6,1,1.2,1.2,2c0.3,0.8,0.4,1.6,0.4,2.5C132.5,26.3,132.3,27.1,132,27.9z"></path>
	</g>
	<g>
		<path d="M285.4,3.1h-7.1v11.1c-0.3-0.1-0.6-0.3-1-0.4c-1.6-0.6-3.2-0.9-5-0.9c-1.7,0-3.3,0.3-4.8,0.9c-1.6,0.6-2.9,1.5-4.1,2.6    c-1.2,1.1-2.1,2.4-2.8,3.9c-0.7,1.5-1.1,3.2-1.1,5.1v0.1c0,1.9,0.4,3.6,1.1,5.1c0.7,1.5,1.7,2.8,2.8,3.9c1.2,1.1,2.6,1.9,4.1,2.6    c1.6,0.6,3.2,0.9,4.8,0.9c1.8,0,3.4-0.3,5-0.9c1.6-0.6,2.9-1.5,4.1-2.6c1.2-1.1,2.1-2.4,2.8-3.9c0.7-1.5,1-3.2,1-5.1v-0.1    c0-0.1,0-0.2,0-0.4h0L285.4,3.1L285.4,3.1z M277.8,27.9c-0.3,0.8-0.7,1.4-1.2,2c-0.5,0.6-1.1,1-1.9,1.3c-0.7,0.3-1.5,0.5-2.3,0.5    c-0.8,0-1.6-0.1-2.3-0.5c-0.7-0.3-1.3-0.8-1.9-1.3c-0.5-0.6-1-1.2-1.2-2c-0.3-0.8-0.4-1.6-0.4-2.5c0-0.9,0.1-1.7,0.4-2.5    c0.3-0.8,0.7-1.4,1.2-2c0.5-0.6,1.1-1,1.9-1.3c0.7-0.3,1.5-0.5,2.3-0.5c0.8,0,1.6,0.1,2.3,0.5c0.7,0.3,1.3,0.8,1.9,1.3    c0.5,0.6,1,1.2,1.2,2c0.3,0.8,0.4,1.6,0.4,2.5C278.2,26.3,278.1,27.1,277.8,27.9z"></path>
	</g>
	<g>
		<path d="M76.4,13.4v12.8c0,1-0.1,1.8-0.4,2.6c-0.2,0.7-0.6,1.3-1,1.8c-0.4,0.5-1,0.8-1.6,1C72.7,31.9,72,32,71.3,32    c-0.8,0-1.5-0.1-2.1-0.3c-0.7-0.3-1.3-0.6-1.8-1.1c-0.5-0.5-0.9-1.1-1.2-1.8c-0.3-0.8-0.4-1.6-0.4-2.6V13.4h-6.6v13.2    c0,1.8,0.3,3.5,0.9,5c0.6,1.5,1.5,2.7,2.5,3.7c1.1,1,2.4,1.7,3.9,2.2c1.5,0.5,3.1,0.8,4.9,0.8c1.8,0,3.3-0.2,4.7-0.8    c1.5-0.5,2.7-1.3,3.7-2.2c1.1-1,1.9-2.2,2.4-3.7c0.6-1.5,0.8-3.1,0.8-5V13.4H76.4L76.4,13.4z"></path>
	</g>
	<g>
		<path d="M93.7,36.7V23.9c0-1,0.1-1.8,0.4-2.6c0.2-0.7,0.6-1.3,1-1.8c0.4-0.5,1-0.8,1.6-1c0.6-0.2,1.3-0.3,2.1-0.3    c0.8,0,1.5,0.1,2.1,0.3c0.7,0.3,1.3,0.6,1.8,1.1c0.5,0.5,0.9,1.1,1.2,1.8c0.3,0.8,0.4,1.6,0.4,2.6v12.8h6.6V23.5    c0-1.8-0.3-3.5-0.9-5c-0.6-1.5-1.5-2.7-2.5-3.7c-1.1-1-2.4-1.7-3.9-2.2c-1.5-0.5-3.1-0.8-4.9-0.8c-1.8,0-3.3,0.2-4.7,0.8    c-1.5,0.5-2.7,1.3-3.7,2.2c-1.1,1-1.9,2.2-2.4,3.7c-0.6,1.5-0.8,3.1-0.8,5v13.3L93.7,36.7L93.7,36.7z"></path>
	</g>
	<g>
		<path d="M222,13.4v12.8c0,1-0.1,1.8-0.4,2.6c-0.2,0.7-0.6,1.3-1,1.8c-0.4,0.5-1,0.8-1.6,1c-0.6,0.2-1.3,0.3-2.1,0.3    c-0.8,0-1.5-0.1-2.1-0.3c-0.7-0.3-1.3-0.6-1.8-1.1c-0.5-0.5-0.9-1.1-1.2-1.8c-0.3-0.8-0.4-1.6-0.4-2.6V13.4h-6.6v13.2    c0,1.8,0.3,3.5,0.9,5c0.6,1.5,1.5,2.7,2.5,3.7c1.1,1,2.4,1.7,3.9,2.2c1.5,0.5,3.1,0.8,4.9,0.8c1.8,0,3.3-0.2,4.7-0.8    c1.5-0.5,2.7-1.3,3.7-2.2c1.1-1,1.9-2.2,2.4-3.7c0.6-1.5,0.8-3.1,0.8-5V13.4H222L222,13.4z"></path>
	</g>
	<g>
		<path d="M239.3,36.7V23.9c0-1,0.1-1.8,0.4-2.6c0.2-0.7,0.6-1.3,1-1.8c0.4-0.5,1-0.8,1.6-1c0.6-0.2,1.3-0.3,2.1-0.3    c0.8,0,1.5,0.1,2.1,0.3c0.7,0.3,1.3,0.6,1.8,1.1c0.5,0.5,0.9,1.1,1.2,1.8c0.3,0.8,0.4,1.6,0.4,2.6v12.8h6.6V23.5    c0-1.8-0.3-3.5-0.9-5c-0.6-1.5-1.5-2.7-2.5-3.7c-1.1-1-2.4-1.7-3.9-2.2c-1.5-0.5-3.1-0.8-4.9-0.8c-1.8,0-3.3,0.2-4.7,0.8    c-1.5,0.5-2.7,1.3-3.7,2.2c-1.1,1-1.9,2.2-2.4,3.7c-0.6,1.5-0.8,3.1-0.8,5v13.3L239.3,36.7L239.3,36.7z"></path>
	</g>
	<path d="M303.7,5.2h3V10h-1l-9.7,27.5h-4.2L303.7,5.2z M298.6,24.8h14.3l1.3,3.4h-17L298.6,24.8z M305.8,10V5.2h1.9l12,32.3h-4.2   L305.8,10z"></path>
	<path d="M323.4,5.2h4v32.3h-4V5.2z"></path>
</g>
</svg>
