<?xml version="1.0" encoding="UTF-8"?>
<svg width="222px" height="52px" viewBox="0 0 222 52" version="1.1" xmlns="http://www.w3.org/2000/svg" xmlns:xlink="http://www.w3.org/1999/xlink">
    <!-- Generator: Sketch 47.1 (45422) - http://www.bohemiancoding.com/sketch -->
    <title>logo_EH-UK</title>
    <desc>Created with Sketch.</desc>
    <defs></defs>
    <g id="Symbols" stroke="none" stroke-width="1" fill="none" fill-rule="evenodd">
        <g id="Header/Desktop" transform="translate(-165.000000, -14.000000)">
            <g id="logo_EH-UK" transform="translate(165.000000, 14.000000)">
                <polygon id="Fill-1" fill="#0065AE" points="0 51.7391016 51.7399056 51.7391016 51.7399056 0 0 0"></polygon>
                <polygon id="Fill-2" fill="#FFFFFF" points="37.2522335 24.8346079 26.9036092 24.8346079 26.9036092 14.4891997 24.8340451 14.4891997 24.8340451 24.8346079 14.4862248 24.8346079 14.4862248 26.903368 24.8340451 26.903368 24.8340451 37.2519923 26.9036092 37.2519923 26.9036092 26.903368 37.2522335 26.903368"></polygon>
                <polygon id="Fill-3" fill="#FFFFFF" points="39.3265413 37.2521531 41.3961054 37.2521531 41.3961054 14.4877525 39.3265413 14.4877525"></polygon>
                <polygon id="Fill-4" fill="#FFFFFF" points="22.7609433 35.1762373 12.4147311 35.1762373 12.4147311 16.5573969 22.7609433 16.5573969 22.7609433 14.4894409 10.345167 14.4894409 10.345167 37.2522335 22.7609433 37.2522335"></polygon>
                <g id="Group-26" transform="translate(61.970433, 10.361938)" fill="#51626F">
                    <polygon id="Fill-5" points="0.108529321 0.970299111 9.48106556 0.970299111 9.20367644 2.69573986 2.18291754 2.69573986 2.18291754 8.32392495 8.05472265 8.32392495 8.05472265 10.1169039 2.18291754 10.1169039 2.18291754 16.4212753 9.73111778 16.4212753 9.73111778 18.2198824 0.108529321 18.2198824"></polygon>
                    <path d="M12.7275635,0.848569507 L14.7529061,0.848569507 L14.7529061,11.963431 C14.7529061,13.1558023 14.8244645,14.1431467 14.9265758,14.6215425 C15.2280858,15.9907995 16.4783469,16.7522125 18.4015781,16.7522125 C19.8239009,16.7522125 20.9029044,16.371104 21.4247176,15.6651688 C21.9481388,14.9528014 22.0751749,14.3184245 22.0751749,12.6975072 L22.0751749,0.848569507 L24.1013216,0.848569507 L24.1013216,12.9266547 C24.1013216,15.4070763 23.8496613,16.2440678 22.7996028,17.1815627 C21.7487402,18.0925246 20.375463,18.5234828 18.3018789,18.5234828 C15.6526117,18.5234828 14.0260662,17.6647825 13.227668,16.0173324 C12.8545997,15.2583314 12.7275635,14.9005396 12.7275635,12.9757003 L12.7275635,0.848569507 Z" id="Fill-6"></path>
                    <polygon id="Fill-8" points="28.2226807 0.848569507 30.2729481 0.848569507 30.2729481 16.4691952 37.0444588 16.4691952 36.7686778 18.2195608 28.2226807 18.2195608"></polygon>
                    <polygon id="Fill-10" points="39.2938032 0.970299111 48.6615153 0.970299111 48.3873423 2.69573986 41.3641713 2.69573986 41.3641713 8.32392495 47.2375845 8.32392495 47.2375845 10.1169039 41.3641713 10.1169039 41.3641713 16.4212753 48.9123716 16.4212753 48.9123716 18.2198824 39.2938032 18.2198824"></polygon>
                    <path d="M54.2844742,2.62072419 L54.2844742,9.10439342 L56.1080062,9.10439342 C57.6340484,9.10439342 58.5844076,8.85273314 59.2059201,8.21916031 C59.7848191,7.68528675 60.083917,6.75100802 60.083917,5.60929047 C60.083917,4.46998501 59.3828059,3.35480033 58.4075218,2.97529985 C57.8591758,2.75017245 57.1821855,2.62072419 56.2583591,2.62072419 L54.2844742,2.62072419 Z M52.21089,0.874378756 L56.2060974,0.874378756 C58.5578748,0.874378756 59.7076326,1.30372888 60.5317597,1.98473927 C61.3060371,2.62072419 62.2346877,3.78495448 62.2346877,5.63582335 C62.2346877,8.49735346 60.4047235,10.3972679 57.6863101,10.3972679 L57.4354539,10.3972679 C58.230636,11.0517455 58.808731,11.8630081 59.1584825,12.345424 C59.50743,12.8238197 59.9560767,13.5088503 60.5558805,14.3707666 C61.1846292,15.3042413 63.1070564,18.2196412 63.1070564,18.2196412 L60.5317597,18.2196412 C60.1369827,17.3086792 59.9560767,16.9758123 59.2059201,15.811582 C58.1285246,14.168152 57.0824862,12.6469339 56.1578558,11.5132566 C55.4832777,10.6465161 55.1086013,10.4229968 54.2595494,10.3972679 L54.2595494,18.2196412 L52.21089,18.2196412 L52.21089,0.874378756 L52.21089,0.874378756 Z" id="Fill-12"></path>
                    <polygon id="Fill-14" points="72.2027663 0.848569507 74.201576 0.848569507 74.201576 8.11777257 81.4257536 8.11777257 81.4257536 0.848569507 83.473609 0.848569507 83.473609 18.2195608 81.4257536 18.2195608 81.4257536 9.81266031 74.201576 9.81266031 74.201576 18.2195608 72.2027663 18.2195608"></polygon>
                    <polygon id="Fill-16" points="88.4929048 0.970299111 97.8654411 0.970299111 97.590464 2.69573986 90.5672931 2.69573986 90.5672931 8.32392495 96.4423143 8.32392495 96.4423143 10.1169039 90.5672931 10.1169039 90.5672931 16.4212753 98.1179054 16.4212753 98.1179054 18.2198824 88.4929048 18.2198824"></polygon>
                    <path d="M103.986494,2.62072419 L103.986494,9.10439342 L105.813242,9.10439342 C107.332852,9.10439342 108.284016,8.85273314 108.912764,8.21916031 C109.486839,7.68528675 109.785133,6.75100802 109.785133,5.60929047 C109.785133,4.46998501 109.088846,3.35480033 108.113562,2.97529985 C107.55798,2.75017245 106.889834,2.62072419 105.963595,2.62072419 L103.986494,2.62072419 Z M101.91291,0.874378756 L105.912942,0.874378756 C108.262307,0.874378756 109.408849,1.30372888 110.236192,1.98473927 C111.008861,2.62072419 111.9351,3.78495448 111.9351,5.63582335 C111.9351,8.49735346 110.11398,10.3972679 107.38833,10.3972679 L107.137474,10.3972679 C107.939088,11.0517455 108.510751,11.8630081 108.863719,12.345424 C109.21347,12.8238197 109.661313,13.5088503 110.261921,14.3707666 C110.885041,15.3042413 112.809077,18.2196412 112.809077,18.2196412 L110.236192,18.2196412 C109.835787,17.3086792 109.661313,16.9758123 108.912764,15.811582 C107.837781,14.168152 106.789331,12.6469339 105.8647,11.5132566 C105.186906,10.6465161 104.81625,10.4229968 103.962374,10.3972679 L103.962374,18.2196412 L101.91291,18.2196412 L101.91291,0.874378756 L101.91291,0.874378756 Z" id="Fill-18"></path>
                    <path d="M117.038577,0.848569507 L120.039204,0.848569507 L123.164455,12.1885584 C123.486869,13.4066585 123.612297,13.8890744 123.841445,15.2326026 C124.116422,13.7612342 124.239438,13.2796223 124.459741,12.3943892 L127.686299,0.848569507 L130.710243,0.848569507 L132.184827,18.2195608 L130.13858,18.2195608 L129.135959,5.48217389 C129.061989,4.36779325 129.010531,2.51853243 129.010531,2.51853243 C128.833645,3.37964475 128.536959,4.57040791 128.338365,5.25543844 L124.661552,18.2195608 L122.917619,18.2195608 L119.517391,5.88740322 C119.166835,4.57040791 118.914371,3.70849156 118.667535,2.49441163 C118.667535,2.49441163 118.542911,4.79794739 118.468136,5.85845827 L117.516973,18.2195608 L115.543892,18.2195608 L117.038577,0.848569507 Z" id="Fill-20"></path>
                    <polygon id="Fill-22" points="136.05533 0.972630787 145.429475 0.972630787 145.151281 2.69646348 138.12811 2.69646348 138.12811 8.32384455 144.001524 8.32384455 144.001524 10.1168235 138.12811 10.1168235 138.12811 16.4203908 145.675507 16.4203908 145.675507 18.220606 136.05533 18.220606"></polygon>
                    <path d="M159.293946,2.13943396 L158.395044,3.63009898 C156.749202,2.54385926 155.695927,2.16435878 154.222951,2.16435878 C152.074592,2.16435878 150.797798,3.25301058 150.797798,5.02669291 C150.797798,6.42087477 151.624337,7.23133342 153.64968,7.86249418 L155.621153,8.49687104 C157.147999,8.97848288 157.97293,9.43436587 158.645096,10.2448245 C159.345403,11.0520671 159.769125,12.2146893 159.769125,13.3057532 C159.769125,14.9266705 158.898365,16.4478885 157.395639,17.4866907 C156.27161,18.2199628 155.123461,18.5480056 153.545961,18.5480056 C151.498909,18.5480056 149.748544,18.0390569 148.049636,16.9761339 L148.946125,15.3552166 C150.374076,16.3940188 151.823736,16.8547259 153.545961,16.8547259 C154.846875,16.8547259 155.547182,16.6513072 156.27161,16.0941169 C157.094933,15.4565239 157.494535,14.6211405 157.494535,13.6112832 C157.494535,12.0667484 156.495934,11.0046295 154.419133,10.3710567 L152.698517,9.84039922 C151.145138,9.36039544 150.322619,9.0034077 149.649649,8.29586443 C148.946125,7.53284334 148.575469,6.57524784 148.575469,5.45684706 C148.575469,2.49400962 150.797798,0.465450907 154.121644,0.465450907 C155.974121,0.465450907 157.669008,1.02424928 159.293946,2.13943396" id="Fill-24"></path>
                </g>
                <text id="United-Kingdom" font-family="AllianzNeo-Regular, Allianz Neo" font-size="14" font-weight="normal" fill="#51626F">
                    <tspan x="61" y="45">United Kingdom</tspan>
                </text>
            </g>
        </g>
    </g>
</svg>